# This file uses centimeters as units for non-parametric coordinates.

mtllib boxcpy.mtl
v -0.500000 -0.500000 0.500000
v 0.500000 -0.500000 0.500000
v -0.500000 0.500000 0.500000
v 0.500000 0.500000 0.500000
v -0.500000 0.500000 -0.500000
v 0.500000 0.500000 -0.500000
v -0.500000 -0.500000 -0.500000
v 0.500000 -0.500000 -0.500000
vt 0.000000 0.000000
vt 1.000000 0.000000
vt 1.000000 1.000000
vt 0.000000 1.000000
vn 0.000000 0.000000 1.000000
vn 0.000000 0.000000 1.000000
vn 0.000000 0.000000 1.000000
vn 0.000000 0.000000 1.000000
vn 0.000000 1.000000 0.000000
vn 0.000000 1.000000 0.000000
vn 0.000000 1.000000 0.000000
vn 0.000000 1.000000 0.000000
vn 0.000000 0.000000 -1.000000
vn 0.000000 0.000000 -1.000000
vn 0.000000 0.000000 -1.000000
vn 0.000000 0.000000 -1.000000
vn 0.000000 -1.000000 0.000000
vn 0.000000 -1.000000 0.000000
vn 0.000000 -1.000000 0.000000
vn 0.000000 -1.000000 0.000000
vn 1.000000 0.000000 0.000000
vn 1.000000 0.000000 0.000000
vn 1.000000 0.000000 0.000000
vn 1.000000 0.000000 0.000000
vn -1.000000 0.000000 0.000000
vn -1.000000 0.000000 0.000000
vn -1.000000 0.000000 0.000000
vn -1.000000 0.000000 0.000000
g pCube1
usemtl lambert2SG
f 1/4/1 2/3/2 3/1/3
f 3/1/3 2/2/2 4/2/4
f 3/1/5 4/2/6 5/1/7
f 5/1/7 4/2/6 6/2/8
f 5/1/9 6/2/10 7/4/11
f 7/4/11 6/2/10 8/3/12
f 7/4/13 8/3/14 1/4/15
f 1/4/15 8/3/14 2/3/16
f 2/3/17 8/3/18 4/2/19
f 4/2/19 8/3/18 6/2/20
f 7/4/21 1/4/22 5/1/23
f 5/1/23 1/4/22 3/1/24
